<svg width="24" height="24" viewBox="0 0 24 24" fill="none" xmlns="http://www.w3.org/2000/svg">
<path d="M12 1.75875C17.8013 1.75875 22.5 6.4575 22.5 12.2587C22.4985 16.77 19.6208 20.778 15.3473 22.2203C14.8223 22.3253 14.625 21.9968 14.625 21.7215C14.625 21.3668 14.6385 20.238 14.6385 18.834C14.6385 17.85 14.3108 17.22 13.9298 16.8915C16.266 16.629 18.7208 15.7365 18.7208 11.7075C18.7208 10.5525 18.3135 9.62025 17.6445 8.886C17.7495 8.6235 18.117 7.54725 17.5395 6.1035C17.5395 6.1035 16.6598 5.81475 14.652 7.17975C13.812 6.9435 12.9195 6.82575 12.027 6.82575C11.1345 6.82575 10.242 6.9435 9.402 7.17975C7.39425 5.82825 6.5145 6.1035 6.5145 6.1035C5.937 7.54725 6.3045 8.6235 6.4095 8.886C5.7405 9.621 5.33325 10.566 5.33325 11.7075C5.33325 15.7238 7.7745 16.6298 10.1108 16.8923C9.8085 17.1548 9.53325 17.6145 9.441 18.2963C8.83725 18.5723 7.3275 19.0185 6.38325 17.43C6.186 17.115 5.59575 16.341 4.76925 16.3538C3.8895 16.3673 4.41525 16.8525 4.782 17.049C5.22825 17.298 5.73975 18.2302 5.85825 18.5325C6.06825 19.1227 6.75075 20.2523 9.3885 19.7663C9.3885 20.646 9.402 21.4725 9.402 21.7215C9.402 21.9975 9.20475 22.3118 8.67975 22.2203C4.3905 20.7923 1.49775 16.779 1.5 12.258C1.5 6.45675 6.19875 1.75875 12 1.75875Z" fill="#F2F2F2"/>
</svg>
