<svg width="24" height="24" viewBox="0 0 24 24" fill="none" xmlns="http://www.w3.org/2000/svg">
<path d="M7.6515 1.5735C6.534 1.626 5.77125 1.8045 5.1045 2.06625C4.4145 2.3355 3.8295 2.69625 3.24675 3.2805C2.66475 3.86475 2.30625 4.4505 2.03925 5.14125C1.7805 5.8095 1.60575 6.573 1.55625 7.69125C1.50675 8.80875 1.49625 9.16875 1.5015 12.0195C1.50675 14.8702 1.5195 15.228 1.5735 16.3485C1.62675 17.4652 1.8045 18.228 2.06625 18.8955C2.3355 19.5855 2.69625 20.1705 3.2805 20.7532C3.86475 21.3352 4.44975 21.693 5.14275 21.9607C5.81025 22.2187 6.5745 22.395 7.692 22.4437C8.8095 22.4925 9.1695 22.5037 12.0202 22.4985C14.871 22.4932 15.2295 22.4805 16.35 22.4272C17.4705 22.374 18.2287 22.1955 18.8962 21.9345C19.5862 21.6645 20.172 21.3045 20.754 20.7195C21.336 20.1345 21.6945 19.5487 21.9607 18.8572C22.2195 18.1897 22.395 17.4255 22.4437 16.3088C22.4925 15.1883 22.5045 14.8305 22.4985 11.979C22.4925 9.1275 22.4805 8.7705 22.4272 7.65075C22.374 6.531 22.1962 5.7705 21.9345 5.103C21.6645 4.413 21.3045 3.828 20.7202 3.24525C20.136 2.6625 19.5495 2.30475 18.858 2.0385C18.1897 1.77975 17.4262 1.6035 16.3087 1.5555C15.1912 1.5075 14.8312 1.49475 11.9797 1.5C9.12825 1.50525 8.77125 1.518 7.6515 1.572M7.7745 20.5538C6.75075 20.5095 6.195 20.3393 5.8245 20.1968C5.334 20.0078 4.9845 19.779 4.6155 19.4137C4.2465 19.0485 4.01925 18.6975 3.828 18.2077C3.684 17.8372 3.51075 17.2822 3.46275 16.2585C3.411 15.1522 3.39975 14.82 3.39375 12.0165C3.38775 9.213 3.39825 8.8815 3.447 7.7745C3.4905 6.7515 3.6615 6.195 3.804 5.8245C3.993 5.33325 4.221 4.9845 4.587 4.6155C4.953 4.2465 5.30325 4.01925 5.793 3.828C6.16275 3.68325 6.7185 3.5115 7.7415 3.46275C8.8485 3.41025 9.18075 3.39975 11.9835 3.39375C14.7862 3.38775 15.1192 3.39825 16.227 3.447C17.25 3.49125 17.8065 3.66075 18.1762 3.804C18.6667 3.993 19.0162 4.22025 19.3852 4.587C19.7542 4.95375 19.9815 5.3025 20.1735 5.79375C20.3182 6.16275 20.49 6.71775 20.538 7.7415C20.5905 8.8485 20.6025 9.18075 20.6077 11.9835C20.613 14.7862 20.6032 15.1193 20.5545 16.2255C20.5095 17.2493 20.34 17.805 20.1975 18.1762C20.0085 18.6667 19.7805 19.0162 19.4137 19.3852C19.047 19.7542 18.6975 19.9815 18.2077 20.1727C17.838 20.3167 17.2822 20.4893 16.26 20.538C15.153 20.5898 14.8207 20.601 12.0172 20.607C9.21375 20.613 8.8815 20.6018 7.7745 20.5538ZM16.3342 6.38775C16.3357 7.08375 16.9005 7.647 17.5965 7.6455C18.2925 7.644 18.8557 7.07925 18.8542 6.38325C18.8527 5.68725 18.288 5.124 17.592 5.1255C16.896 5.127 16.3335 5.69175 16.3342 6.38775ZM6.609 12.0097C6.615 14.9872 9.033 17.3962 12.0105 17.3902C14.988 17.3842 17.3977 14.9662 17.3925 11.9887C17.3865 9.01125 14.9677 6.6015 11.9902 6.6075C9.01275 6.6135 6.603 9.03225 6.609 12.0097ZM8.50125 12.006C8.4975 10.0732 10.0612 8.50275 11.9947 8.499C13.9275 8.49525 15.498 10.059 15.5017 11.9925C15.5055 13.9252 13.9417 15.4957 12.0082 15.4995C10.0755 15.5032 8.505 13.9402 8.50125 12.0075" fill="#F2F2F2"/>
</svg>
