<svg width="24" height="24" viewBox="0 0 24 24" fill="none" xmlns="http://www.w3.org/2000/svg">
<path d="M23.4982 6.186C23.2222 5.1465 22.4093 4.32825 21.3765 4.05C19.5045 3.54525 12 3.54525 12 3.54525C12 3.54525 4.49475 3.54525 2.6235 4.05C1.59075 4.3275 0.77775 5.1465 0.50175 6.186C0 8.07 0 12 0 12C0 12 0 15.9308 0.50175 17.814C0.77775 18.8535 1.59075 19.6718 2.6235 19.9493C4.4955 20.454 12 20.454 12 20.454C12 20.454 19.5053 20.454 21.3765 19.9493C22.4093 19.6718 23.2222 18.8528 23.4982 17.814C24 15.93 24 12 24 12C24 12 24 8.07 23.4982 6.186ZM9.54525 15.5685V8.4315L15.8182 12L9.54525 15.5685Z" fill="#F2F2F2"/>
</svg>
